Coordinates
version=1
nRows=24
nColumns=24
inDegrees=yes

Units are S.I. units (second, meters, Newtons, ...)
Angles are in degrees.

endheader
time	pelvis_tilt	pelvis_list	pelvis_rotation	pelvis_tx	pelvis_ty	pelvis_tz	hip_flexion_r	hip_adduction_r	hip_rotation_r	knee_angle_r	ankle_angle_r	subtalar_angle_r	mtp_angle_r	hip_flexion_l	hip_adduction_l	hip_rotation_l	knee_angle_l	ankle_angle_l	subtalar_angle_l	mtp_angle_l	lumbar_extension	lumbar_bending	lumbar_rotation
      5.94000000	     -5.50183034	      1.42794012	     -3.08448337	      0.05725885	      0.70194405	      0.22421320	     30.34596372	      2.14081778	      3.60618313	    -64.90715783	      7.91565326	     -3.90655521	      0.00000000	      1.58618648	      7.35741482	     23.36167411	      0.70524099	     -1.34659064	    -33.47321903	      0.00000000	    -12.43293490	     -2.12842642	     -4.41371619
      5.95000000	     -5.81213183	      0.84000368	     -2.36704099	      0.06903901	      0.70204739	      0.22340802	     31.75952443	      2.49464781	      2.69497039	    -62.47138301	      7.93673066	     -6.11997935	      0.00000000	      0.35424052	      6.63884816	     23.89975746	      1.63753919	     -1.18522299	    -33.58805652	      0.00000000	    -12.63942890	     -1.35413036	     -4.95852189
      5.96000000	     -6.18082956	      0.38641954	     -1.78777351	      0.08084895	      0.70171250	      0.22281068	     33.09750328	      2.78432650	      2.05286890	    -59.68043219	      7.91815544	     -8.07067174	      0.00000000	     -0.68176662	      6.09618272	     24.17423076	      2.34767561	     -0.83596726	    -33.57786997	      0.00000000	    -12.70777493	     -0.78192192	     -5.27105780
      5.97000000	     -6.38752675	      0.10623639	     -1.11208434	      0.09261594	      0.70121840	      0.22215707	     34.11297356	      2.83017292	      1.44780538	    -56.55844093	      7.86014466	     -9.83822383	      0.00000000	     -1.78097368	      5.75556586	     24.60804702	      2.87351338	     -0.44289120	    -33.54784017	      0.00000000	    -12.96802105	     -0.42542889	     -5.71353558
      5.98000000	     -6.56802784	     -0.07702172	     -0.53679616	      0.10451320	      0.70048337	      0.22164962	     34.89136813	      2.84705393	      1.08964254	    -53.02615357	      7.89469156	    -11.14999361	      0.00000000	     -2.81494430	      5.54927814	     24.93046982	      3.19647208	     -0.00556949	    -33.58166558	      0.00000000	    -13.17497139	     -0.21467073	     -6.09935930
      5.99000000	     -6.80812902	     -0.16111953	     -0.03842870	      0.11650464	      0.69940419	      0.22122627	     35.52714677	      2.82914625	      0.99443170	    -49.10577249	      8.06174001	    -11.95558918	      0.00000000	     -3.71093134	      5.47724199	     25.16210969	      3.35770260	      0.44661335	    -33.65951708	      0.00000000	    -13.24747604	     -0.11523397	     -6.44340995
      6.00000000	     -6.99035813	     -0.15173243	      0.46808272	      0.12856292	      0.69814855	      0.22087774	     35.87332817	      2.72880876	      1.02781519	    -44.76752899	      8.30901967	    -12.47662055	      0.00000000	     -4.62256746	      5.48921497	     25.52373765	      3.40409221	      0.95031296	    -33.71759513	      0.00000000	    -13.34518827	     -0.15140950	     -6.77142392
      6.01000000	     -6.98088618	     -0.07229940	      0.97384667	      0.14075851	      0.69695092	      0.22053058	     35.74148252	      2.56529647	      1.20138855	    -39.96206575	      8.61193220	    -12.72514999	      0.00000000	     -5.71828768	      5.56994886	     25.88424410	      3.36631398	      1.45659893	    -33.70949981	      0.00000000	    -13.63240854	     -0.28589412	     -7.10469914
      6.02000000	     -7.24510122	      0.04950990	      1.35881037	      0.15323705	      0.69517514	      0.22021886	     35.65089455	      2.40468912	      1.63087797	    -34.76422154	      8.99601131	    -12.47931276	      0.00000000	     -6.51587328	      5.70816019	     26.20833808	      3.25406800	      1.97547925	    -33.73572856	      0.00000000	    -13.45494857	     -0.43781522	     -7.30340046
      6.03000000	     -7.28158086	      0.25277796	      1.83814150	      0.16592654	      0.69355316	      0.21982335	     35.02568256	      2.09892223	      2.09025809	    -29.13914428	      9.21653038	    -12.23555840	      0.00000000	     -7.55951380	      5.88887764	     26.64500168	      3.08420807	      2.50331060	    -33.48042507	      0.00000000	    -13.52830546	     -0.67002033	     -7.70656192
      6.04000000	     -7.23798013	      0.54828297	      2.21979197	      0.17896350	      0.69174246	      0.21939934	     34.10615187	      1.71350184	      2.71734852	    -23.28882649	      9.34687703	    -11.77593162	      0.00000000	     -8.70086149	      6.18475568	     26.92991305	      2.84761690	      3.10752137	    -33.12501545	      0.00000000	    -13.62438789	     -0.96395015	     -8.07534798
      6.05000000	     -7.30127128	      1.05047855	      2.66492058	      0.19218784	      0.68955699	      0.21879853	     33.21692297	      1.03066886	      3.26498258	    -17.50714898	      9.31894011	    -11.02650512	      0.00000000	     -9.69228745	      6.68195215	     27.52291741	      2.45367129	      3.63856301	    -32.71481574	      0.00000000	    -13.55717517	     -1.47274949	     -8.50975463
      6.06000000	     -7.12747035	      1.53776815	      3.10134791	      0.20606107	      0.68741077	      0.21812246	     31.96183248	      0.34136200	      3.41478947	    -11.89276639	      9.17362647	    -10.10093175	      0.00000000	    -10.99720138	      7.13669993	     27.94553914	      2.04719884	      4.32766571	    -32.00460421	      0.00000000	    -13.63765481	     -1.89322756	     -9.00634930
      6.07000000	     -6.83159787	      2.03723866	      3.45209853	      0.22037062	      0.68524135	      0.21750076	     30.61598856	     -0.29625479	      3.22029156	     -6.86056916	      8.94909834	     -8.66373328	      0.00000000	    -12.43820557	      7.58013771	     28.25957709	      1.55566666	      5.17555834	    -30.84650948	      0.00000000	    -13.82091897	     -2.29454648	     -9.45987356
      6.08000000	     -6.54235109	      2.58473884	      3.78059977	      0.23492960	      0.68299016	      0.21692369	     29.41988805	     -0.89446775	      2.73747839	     -2.70252144	      8.80351452	     -6.97590037	      0.00000000	    -13.76578615	      8.09396200	     28.48646446	      0.79168881	      6.13424041	    -29.36490690	      0.00000000	    -13.97467172	     -2.73640182	     -9.90366375
      6.09000000	     -6.20043088	      3.04541698	      3.93339277	      0.24973083	      0.68083087	      0.21648348	     28.36815534	     -1.25043883	      2.39146933	      0.40785426	      8.65576019	     -5.41115956	      0.00000000	    -14.98588288	      8.60503660	     28.16577603	     -0.30962349	      7.47436415	    -27.12140396	      0.00000000	    -14.18398936	     -3.04970336	    -10.12971238
      6.10000000	     -5.88755661	      3.36211717	      4.05299465	      0.26479308	      0.67888296	      0.21613867	     27.48735091	     -1.38846875	      2.41144544	      2.51385977	      8.18204991	     -4.84925953	      0.00000000	    -15.97545468	      9.01163962	     27.34558328	     -1.76777862	      8.90251256	    -24.16523281	      0.00000000	    -14.32383175	     -3.20400506	    -10.37615585
      6.11000000	     -5.60818955	      3.55497670	      3.87974131	      0.27982952	      0.67709320	      0.21590104	     26.93053950	     -1.29368695	      3.32350129	      3.41544794	      7.51238743	     -5.28112416	      0.00000000	    -16.52268176	      9.50745386	     25.33448873	     -3.89588601	     10.70645407	    -20.13250423	      0.00000000	    -14.46190412	     -3.16367846	    -10.28185182
      6.12000000	     -5.46874651	      3.54561633	      3.59281883	      0.29478145	      0.67554710	      0.21586812	     26.82219665	     -0.90606702	      4.49096947	      3.13032348	      6.51318849	     -6.53694947	      0.00000000	    -16.47162191	      9.86329347	     22.43450669	     -6.68022110	     12.46020526	    -15.32254587	      0.00000000	    -14.45953877	     -2.94140194	     -9.94390064
      6.13000000	     -5.50166034	      3.24678918	      3.43202931	      0.30950821	      0.67424913	      0.21575287	     27.21028068	     -0.23888421	      5.58787519	      1.66003449	      5.42261074	     -8.26942001	      0.00000000	    -15.71305119	      9.85950359	     19.01700920	    -10.21931716	     14.04035313	    -10.03542884	      0.00000000	    -14.31162434	     -2.35171366	     -9.70158950
      6.14000000	     -5.52368724	      2.63305351	      3.08494654	      0.32412088	      0.67325716	      0.21593997	     27.90311559	      0.89297139	      6.71904028	     -0.85164764	      4.28750079	    -10.02389888	      0.00000000	    -14.63221461	      9.43204735	     15.38207205	    -14.14803678	     14.78857850	     -5.34694056	      0.00000000	    -14.19390458	     -1.40892247	     -9.30341480
      6.15000000	     -5.54668816	      1.71750520	      2.66680989	      0.33863188	      0.67254491	      0.21629839	     28.80558864	      2.41530842	      7.66896546	     -4.11309015	      3.09494051	    -11.58349996	      0.00000000	    -13.31155134	      8.55367078	     12.11570495	    -18.35703483	     14.73455139	     -1.45691038	      0.00000000	    -14.09017753	     -0.12740869	     -8.77193266
      6.16000000	     -5.54105405	      0.61942053	      2.21809362	      0.35308239	      0.67205243	      0.21677772	     29.79410626	      4.17378306	      8.38147715	     -7.85677987	      2.15289813	    -12.76589202	      0.00000000	    -11.81717222	      7.36905922	      9.30216322	    -22.79302731	     13.97448681	      1.54860290	      0.00000000	    -14.01316073	      1.34577328	     -8.23034611
      6.17000000	     -5.36383448	     -0.62828454	      1.72164446	      0.36763092	      0.67193526	      0.21729441	     30.56510377	      6.09431628	      8.68046223	    -11.71955704	      1.71088081	    -13.24970472	      0.00000000	    -10.33908532	      5.93853919	      6.87208271	    -27.35991209	     12.65789736	      3.68709708	      0.00000000	    -14.10457226	      2.98565329	     -7.61569166
